<svg width="4995" height="1592" viewBox="0 0 4995 1592" fill="none" xmlns="http://www.w3.org/2000/svg">
<path d="M1015.5 371.781C898.488 371.781 803.641 466.629 803.641 583.641V746.609H885.125V583.641C885.125 511.755 943.614 453.266 1015.5 453.266C1087.39 453.266 1145.88 511.755 1145.88 583.641V746.609H1227.36V583.641C1227.36 466.629 1132.51 371.781 1015.5 371.781Z" fill="url(#paint0_linear_101_11)"/>
<path d="M1292.55 1202.92H738.453C711.449 1202.92 689.562 1181.04 689.562 1154.03V844.391C689.562 754.383 762.524 681.422 852.531 681.422H1178.47C1268.48 681.422 1341.44 754.383 1341.44 844.391V1154.03C1341.44 1181.04 1319.55 1202.92 1292.55 1202.92Z" fill="url(#paint1_linear_101_11)"/>
<path d="M1162.17 974.766C1162.17 1001.77 1184.06 1023.66 1211.06 1023.66H1219.21C1241.72 1023.66 1259.95 1041.89 1259.95 1064.4C1259.95 1086.9 1241.72 1105.14 1219.21 1105.14H1145.88C1118.87 1105.14 1096.98 1127.03 1096.98 1154.03C1096.98 1181.04 1118.87 1202.92 1145.88 1202.92H1292.55C1319.55 1202.92 1341.44 1181.04 1341.44 1154.03V925.875H1211.06C1184.06 925.875 1162.17 947.762 1162.17 974.766Z" fill="url(#paint2_linear_101_11)"/>
<path d="M868.828 885.133C868.828 862.627 850.592 844.391 828.086 844.391H811.789C789.283 844.391 771.047 826.154 771.047 803.648C771.047 781.142 789.283 762.906 811.789 762.906H893.273C915.779 762.906 934.016 744.67 934.016 722.164C934.016 699.658 915.779 681.422 893.273 681.422H852.531C762.524 681.422 689.562 754.383 689.562 844.391V925.875H828.086C850.592 925.875 868.828 907.639 868.828 885.133Z" fill="url(#paint3_linear_101_11)"/>
<path d="M1015.5 893.281C1002.53 893.281 990.098 898.432 980.929 907.601C971.76 916.77 966.609 929.205 966.609 942.172C966.609 955.138 971.76 967.574 980.929 976.743C990.098 985.912 1002.53 991.062 1015.5 991.062C1028.47 991.062 1040.9 985.912 1050.07 976.743C1059.24 967.574 1064.39 955.138 1064.39 942.172C1064.39 929.205 1059.24 916.77 1050.07 907.601C1040.9 898.432 1028.47 893.281 1015.5 893.281ZM1178.47 893.281C1165.5 893.281 1153.07 898.432 1143.9 907.601C1134.73 916.77 1129.58 929.205 1129.58 942.172C1129.58 955.138 1134.73 967.574 1143.9 976.743C1153.07 985.912 1165.5 991.062 1178.47 991.062C1191.44 991.062 1203.87 985.912 1213.04 976.743C1222.21 967.574 1227.36 955.138 1227.36 942.172C1227.36 929.205 1222.21 916.77 1213.04 907.601C1203.87 898.432 1191.44 893.281 1178.47 893.281ZM852.531 893.281C839.565 893.281 827.129 898.432 817.96 907.601C808.792 916.77 803.641 929.205 803.641 942.172C803.641 955.138 808.792 967.574 817.96 976.743C827.129 985.912 839.565 991.062 852.531 991.062C865.498 991.062 877.933 985.912 887.102 976.743C896.271 967.574 901.422 955.138 901.422 942.172C901.422 929.205 896.271 916.77 887.102 907.601C877.933 898.432 865.498 893.281 852.531 893.281Z" fill="white"/>
<path d="M1723.84 1123H1562.45V1079.38H1600.98V657.72H1562.45V614.1H1715.12C1731.11 614.1 1748.56 616.766 1767.46 622.097C1786.85 626.944 1804.78 634.698 1821.26 645.361C1838.22 656.508 1852.28 670.564 1863.42 687.527C1874.57 704.49 1880.14 725.331 1880.14 750.049C1880.14 792.7 1866.82 826.869 1840.16 852.556C1813.99 877.759 1775.94 890.36 1726.02 890.36H1646.78V1079.38H1723.84V1123ZM1646.78 657.72V846.013H1715.84C1738.62 846.013 1757.52 842.863 1772.55 836.562C1788.06 830.261 1800.42 822.507 1809.63 813.298C1818.35 804.089 1824.65 793.911 1828.53 782.764C1832.4 771.132 1834.34 760.227 1834.34 750.049C1834.34 737.448 1831.19 725.816 1824.89 715.153C1819.08 704.006 1810.84 694.07 1800.17 685.346C1789.51 677.107 1776.91 670.564 1762.37 665.717C1748.31 660.386 1733.05 657.72 1716.57 657.72H1646.78ZM2274.79 1123H2179.55V1101.19C2179.55 1096.83 2179.55 1092.95 2179.55 1089.56C2179.55 1086.17 2179.55 1082.29 2179.55 1077.93C2177.61 1082.77 2173.73 1088.1 2167.92 1093.92C2162.59 1099.74 2155.56 1105.07 2146.83 1109.91C2137.63 1115.73 2126.96 1120.33 2114.85 1123.73C2103.21 1127.12 2090.13 1128.82 2075.59 1128.82C2055.23 1128.82 2036.09 1125.18 2018.15 1117.91C2000.71 1110.16 1985.68 1099.74 1973.08 1086.65C1959.99 1074.05 1949.57 1059.27 1941.82 1042.3C1934.55 1024.85 1930.91 1006.44 1930.91 987.051C1930.91 967.664 1934.55 949.247 1941.82 931.799C1949.57 914.351 1959.99 899.326 1973.08 886.725C1985.68 873.639 2000.71 863.219 2018.15 855.464C2036.09 847.709 2055.23 843.832 2075.59 843.832C2103.21 843.832 2125.99 849.648 2143.93 861.28C2161.86 872.912 2173.73 885.513 2179.55 899.084C2179.55 891.329 2179.79 883.332 2180.28 875.093C2181.25 866.854 2181.97 858.614 2182.46 850.375H2220.26V1079.38H2274.79V1123ZM2075.59 888.906C2061.05 888.906 2047.48 891.572 2034.88 896.903C2022.27 901.75 2011.85 909.02 2003.61 918.713C1994.89 927.437 1988.35 937.615 1983.99 949.247C1979.62 960.394 1977.44 972.753 1977.44 986.324C1977.44 1001.35 1980.35 1015.4 1986.17 1028.49C1991.98 1041.09 2000.22 1051.75 2010.88 1060.48C2019.12 1067.75 2028.58 1073.56 2039.24 1077.93C2050.39 1082.29 2062.5 1084.47 2075.59 1084.47C2089.16 1084.47 2101.76 1082.05 2113.39 1077.2C2125.51 1072.35 2135.93 1065.81 2144.65 1057.57C2153.86 1048.85 2161.13 1038.43 2166.46 1026.31C2171.79 1013.71 2174.46 1000.38 2174.46 986.324C2174.46 972.269 2171.79 959.183 2166.46 947.066C2161.13 934.465 2153.86 924.044 2144.65 915.805C2135.93 907.081 2125.51 900.538 2113.39 896.176C2101.76 891.329 2089.16 888.906 2075.59 888.906ZM2496.5 1098.28C2489.71 1107.01 2480.26 1114.28 2468.15 1120.09C2456.51 1125.91 2441.73 1128.82 2423.8 1128.82C2407.32 1128.82 2391.08 1126.88 2375.09 1123C2359.58 1118.64 2346.49 1111.13 2335.83 1100.46V1041.58H2377.27V1074.29C2384.54 1078.65 2391.81 1081.32 2399.08 1082.29C2406.83 1083.26 2415.56 1083.74 2425.25 1083.74C2430.58 1083.74 2435.91 1083.01 2441.25 1081.56C2446.58 1080.11 2451.67 1077.68 2456.51 1074.29C2459.91 1071.38 2462.81 1067.75 2465.24 1063.39C2467.66 1058.54 2468.87 1052.72 2468.87 1045.94C2468.87 1035.28 2465.96 1027.28 2460.15 1021.95C2454.82 1016.13 2447.55 1011.53 2438.34 1008.13C2429.13 1004.26 2418.95 1000.86 2407.8 997.956C2397.14 994.563 2386.96 990.201 2377.27 984.87C2368.06 979.539 2360.31 972.269 2354.01 963.06C2347.71 953.367 2344.56 940.281 2344.56 923.802C2344.56 909.747 2347.22 897.872 2352.55 888.179C2357.88 878.001 2364.67 869.762 2372.91 863.461C2381.15 857.16 2390.36 852.556 2400.53 849.648C2410.71 846.255 2420.16 844.559 2428.89 844.559C2434.22 844.559 2440.03 845.044 2446.34 846.013C2453.12 846.982 2460.15 848.679 2467.42 851.102C2474.2 853.525 2480.75 856.433 2487.05 859.826C2493.83 863.219 2499.65 867.581 2504.5 872.912V931.799H2463.06V896.903C2458.21 894.48 2453.12 892.783 2447.79 891.814C2442.46 890.36 2436.64 889.633 2430.34 889.633C2425.01 889.633 2419.68 890.36 2414.35 891.814C2409.5 893.268 2405.14 895.207 2401.26 897.63C2397.87 901.023 2395.2 904.9 2393.26 909.262C2391.33 913.624 2390.6 918.713 2391.08 924.529C2391.57 932.768 2394.96 939.311 2401.26 944.158C2408.05 949.005 2416.04 953.124 2425.25 956.517C2434.46 960.394 2444.4 964.514 2455.06 968.876C2465.72 972.753 2475.42 977.6 2484.14 983.416C2493.35 989.717 2500.86 997.714 2506.68 1007.41C2512.49 1017.1 2515.4 1029.7 2515.4 1045.21C2515.4 1052.48 2513.95 1060.96 2511.04 1070.66C2508.13 1080.35 2503.28 1089.56 2496.5 1098.28ZM2734.33 1098.28C2727.55 1107.01 2718.1 1114.28 2705.98 1120.09C2694.35 1125.91 2679.57 1128.82 2661.63 1128.82C2645.16 1128.82 2628.92 1126.88 2612.93 1123C2597.42 1118.64 2584.33 1111.13 2573.67 1100.46V1041.58H2615.11V1074.29C2622.38 1078.65 2629.65 1081.32 2636.92 1082.29C2644.67 1083.26 2653.4 1083.74 2663.09 1083.74C2668.42 1083.74 2673.75 1083.01 2679.08 1081.56C2684.41 1080.11 2689.5 1077.68 2694.35 1074.29C2697.74 1071.38 2700.65 1067.75 2703.07 1063.39C2705.5 1058.54 2706.71 1052.72 2706.71 1045.94C2706.71 1035.28 2703.8 1027.28 2697.98 1021.95C2692.65 1016.13 2685.38 1011.53 2676.17 1008.13C2666.97 1004.26 2656.79 1000.86 2645.64 997.956C2634.98 994.563 2624.8 990.201 2615.11 984.87C2605.9 979.539 2598.14 972.269 2591.84 963.06C2585.54 953.367 2582.39 940.281 2582.39 923.802C2582.39 909.747 2585.06 897.872 2590.39 888.179C2595.72 878.001 2602.51 869.762 2610.74 863.461C2618.98 857.16 2628.19 852.556 2638.37 849.648C2648.55 846.255 2658 844.559 2666.72 844.559C2672.06 844.559 2677.87 845.044 2684.17 846.013C2690.96 846.982 2697.98 848.679 2705.25 851.102C2712.04 853.525 2718.58 856.433 2724.88 859.826C2731.67 863.219 2737.49 867.581 2742.33 872.912V931.799H2700.89V896.903C2696.05 894.48 2690.96 892.783 2685.63 891.814C2680.29 890.36 2674.48 889.633 2668.18 889.633C2662.85 889.633 2657.52 890.36 2652.18 891.814C2647.34 893.268 2642.98 895.207 2639.1 897.63C2635.71 901.023 2633.04 904.9 2631.1 909.262C2629.16 913.624 2628.44 918.713 2628.92 924.529C2629.4 932.768 2632.8 939.311 2639.1 944.158C2645.88 949.005 2653.88 953.124 2663.09 956.517C2672.3 960.394 2682.23 964.514 2692.9 968.876C2703.56 972.753 2713.25 977.6 2721.98 983.416C2731.18 989.717 2738.7 997.714 2744.51 1007.41C2750.33 1017.1 2753.24 1029.7 2753.24 1045.21C2753.24 1052.48 2751.78 1060.96 2748.87 1070.66C2745.97 1080.35 2741.12 1089.56 2734.33 1098.28Z" fill="#5FD68E"/>
<path d="M2962.72 1123H2801.33V1079.38H2847.85V657.72H2801.33V614.1H3155.38V726.058H3111.76V657.72H2893.66V844.559H3127.02V888.179H2893.66V1079.38H2962.72V1123ZM3453.18 1086.65C3440.1 1099.74 3424.59 1110.16 3406.66 1117.91C3389.21 1125.18 3370.55 1128.82 3350.68 1128.82C3330.32 1128.82 3311.42 1125.18 3293.97 1117.91C3276.52 1110.16 3261.26 1099.74 3248.17 1086.65C3235.08 1074.05 3224.66 1059.27 3216.91 1042.3C3209.64 1024.85 3206 1006.2 3206 986.324C3206 966.937 3209.64 948.52 3216.91 931.072C3224.66 913.624 3235.08 898.357 3248.17 885.271C3261.26 872.67 3276.52 862.734 3293.97 855.464C3311.42 847.709 3330.32 843.832 3350.68 843.832C3370.55 843.832 3389.21 847.709 3406.66 855.464C3424.59 862.734 3440.34 872.67 3453.91 885.271C3466.51 898.357 3476.45 913.624 3483.72 931.072C3491.47 948.52 3495.35 966.937 3495.35 986.324C3495.35 1006.2 3491.47 1024.85 3483.72 1042.3C3476.45 1059.27 3466.27 1074.05 3453.18 1086.65ZM3280.89 1055.39C3289.61 1064.6 3299.79 1071.87 3311.42 1077.2C3323.05 1082.05 3335.65 1084.47 3349.22 1084.47C3362.79 1084.47 3375.4 1082.05 3387.03 1077.2C3399.14 1071.87 3409.81 1064.6 3419.02 1055.39C3427.74 1046.66 3434.52 1036.49 3439.37 1024.85C3444.7 1013.22 3447.37 1000.62 3447.37 987.051C3447.37 973.48 3444.7 960.879 3439.37 949.247C3434.52 937.13 3427.74 926.468 3419.02 917.259C3409.81 908.535 3399.14 901.75 3387.03 896.903C3375.4 891.572 3362.79 888.906 3349.22 888.906C3335.65 888.906 3323.05 891.572 3311.42 896.903C3299.79 901.75 3289.61 908.535 3280.89 917.259C3271.68 926.468 3264.41 937.13 3259.08 949.247C3254.23 960.879 3251.81 973.238 3251.81 986.324C3251.81 1000.38 3254.23 1013.22 3259.08 1024.85C3264.41 1036.49 3271.68 1046.66 3280.89 1055.39ZM3697.29 1123H3546.08V1079.38H3602.05V893.995H3551.89V850.375H3641.31L3643.49 888.179C3644.46 898.357 3644.71 903.931 3644.22 904.9C3644.22 905.385 3644.71 910.716 3645.67 920.894C3651.49 908.777 3658.76 898.115 3667.48 888.906C3676.21 879.213 3685.66 871.216 3695.84 864.915C3706.02 858.13 3715.95 853.041 3725.64 849.648C3735.82 846.255 3745.52 844.559 3754.72 844.559L3751.82 889.633C3738.73 889.633 3726.37 891.572 3714.74 895.449C3703.11 898.842 3692.93 903.931 3684.21 910.716C3673.06 918.955 3664.09 929.376 3657.31 941.977C3651.01 954.094 3647.86 967.664 3647.86 982.689V1079.38H3697.29V1123ZM3839.36 1261.86L3870.62 1224.78C3880.8 1233.5 3892.92 1241.02 3906.97 1247.32C3921.51 1254.1 3936.54 1257.5 3952.05 1257.5C3965.62 1257.5 3978.22 1254.83 3989.85 1249.5C4001.97 1244.17 4012.39 1236.9 4021.11 1227.69C4029.84 1218.48 4036.62 1207.33 4041.47 1194.25C4046.8 1181.64 4049.47 1167.59 4049.47 1152.08V1105.55C4049.47 1102.64 4049.47 1099.01 4049.47 1094.65C4049.95 1089.8 4050.44 1085.2 4050.92 1080.83C4048.5 1086.17 4044.38 1091.74 4038.56 1097.55C4032.75 1102.89 4026.2 1107.49 4018.93 1111.37C4010.21 1116.7 4000.03 1120.82 3988.4 1123.73C3976.77 1126.64 3964.17 1128.09 3950.59 1128.09C3930.24 1128.09 3911.09 1124.45 3893.16 1117.18C3875.71 1109.91 3860.69 1099.74 3848.09 1086.65C3835 1074.05 3824.58 1059.27 3816.83 1042.3C3809.56 1024.85 3805.92 1006.44 3805.92 987.051C3805.92 967.664 3809.56 949.247 3816.83 931.799C3824.58 914.351 3835 899.326 3848.09 886.725C3860.69 873.639 3875.71 863.219 3893.16 855.464C3911.09 847.709 3930.24 843.832 3950.59 843.832C3975.8 843.832 3997.61 849.648 4016.02 861.28C4034.44 872.427 4047.29 885.029 4054.56 899.084C4054.56 890.845 4054.8 882.848 4055.28 875.093C4055.77 867.338 4056.49 859.099 4057.46 850.375H4149.79V893.995H4095.27V1157.9C4095.27 1179.22 4091.39 1198.85 4083.64 1216.78C4076.37 1234.72 4066.43 1249.98 4053.83 1262.58C4040.74 1275.67 4025.48 1285.85 4008.03 1293.12C3991.06 1300.87 3972.89 1304.75 3953.5 1304.75C3930.72 1304.75 3909.4 1300.39 3889.53 1291.66C3870.14 1283.42 3853.42 1273.49 3839.36 1261.86ZM3950.59 888.906C3935.57 888.906 3921.76 891.572 3909.16 896.903C3897.04 902.234 3886.62 909.747 3877.89 919.44C3869.66 927.679 3863.35 937.615 3858.99 949.247C3854.63 960.879 3852.45 973.238 3852.45 986.324C3852.45 1000.38 3854.87 1013.71 3859.72 1026.31C3865.05 1038.43 3872.32 1048.85 3881.53 1057.57C3890.25 1065.81 3900.43 1072.35 3912.06 1077.2C3923.7 1082.05 3936.54 1084.47 3950.59 1084.47C3965.13 1084.47 3978.46 1081.8 3990.58 1076.47C4002.7 1071.14 4013.12 1063.87 4021.84 1054.66C4030.56 1046.42 4037.35 1036.49 4042.2 1024.85C4047.04 1012.74 4049.47 999.895 4049.47 986.324C4049.47 971.299 4046.56 957.729 4040.74 945.612C4034.93 933.011 4027.17 922.348 4017.48 913.624C4009.24 905.869 3999.3 899.811 3987.67 895.449C3976.04 891.087 3963.68 888.906 3950.59 888.906ZM4344.61 888.906C4328.61 888.906 4314.07 892.056 4300.99 898.357C4288.38 904.173 4277.48 912.412 4268.27 923.075C4261 932.284 4255.43 942.946 4251.55 955.063C4247.67 967.18 4246.46 980.023 4247.91 993.594C4275.54 982.931 4302.92 972.269 4330.07 961.606C4357.69 950.943 4385.32 940.523 4412.94 930.345C4405.19 917.744 4395.5 907.808 4383.86 900.538C4372.23 892.783 4359.15 888.906 4344.61 888.906ZM4438.39 1090.28C4426.27 1102.4 4412.22 1111.85 4396.22 1118.64C4380.71 1125.42 4363.51 1128.82 4344.61 1128.82C4324.73 1128.82 4305.83 1125.18 4287.9 1117.91C4270.45 1110.16 4255.43 1099.98 4242.83 1087.38C4229.74 1074.29 4219.32 1059.27 4211.56 1042.3C4204.29 1024.85 4200.66 1006.2 4200.66 986.324C4200.66 966.937 4204.29 948.52 4211.56 931.072C4219.32 913.624 4229.74 898.357 4242.83 885.271C4255.43 872.67 4270.45 862.734 4287.9 855.464C4305.83 847.709 4324.73 843.832 4344.61 843.832C4359.63 843.832 4373.93 846.74 4387.5 852.556C4401.07 858.372 4413.43 866.127 4424.58 875.82C4435.24 885.998 4444.45 897.872 4452.2 911.443C4460.44 925.014 4466.74 939.796 4471.1 955.79C4435.72 969.361 4400.58 982.931 4365.69 996.502C4330.79 1009.59 4295.65 1022.92 4260.27 1036.49C4268.51 1051.03 4279.9 1062.66 4294.44 1071.38C4308.98 1080.11 4325.7 1084.47 4344.61 1084.47C4357.69 1084.47 4369.81 1082.29 4380.96 1077.93C4392.1 1073.08 4401.8 1066.29 4410.04 1057.57L4438.39 1090.28Z" fill="#37AF6C"/>
<defs>
<linearGradient id="paint0_linear_101_11" x1="1015.5" y1="371.781" x2="1015.5" y2="746.609" gradientUnits="userSpaceOnUse">
<stop stop-color="#A4A4A4"/>
<stop offset="0.63" stop-color="#7F7F7F"/>
<stop offset="1" stop-color="#6F6F6F"/>
</linearGradient>
<linearGradient id="paint1_linear_101_11" x1="1015.5" y1="681.422" x2="1015.5" y2="1202.92" gradientUnits="userSpaceOnUse">
<stop stop-color="#42D778"/>
<stop offset="0.428" stop-color="#3DCA76"/>
<stop offset="1" stop-color="#34B171"/>
</linearGradient>
<linearGradient id="paint2_linear_101_11" x1="1219.21" y1="1202.92" x2="1219.21" y2="801.481" gradientUnits="userSpaceOnUse">
<stop stop-color="#37AB6A"/>
<stop offset="0.422" stop-color="#39B66F"/>
<stop offset="1" stop-color="#3AC074"/>
</linearGradient>
<linearGradient id="paint3_linear_101_11" x1="811.789" y1="750.879" x2="811.789" y2="1180.04" gradientUnits="userSpaceOnUse">
<stop stop-color="#62DE8F"/>
<stop offset="0.478" stop-color="#5DD18D"/>
<stop offset="1" stop-color="#56BE89"/>
</linearGradient>
</defs>
</svg>
