<svg width="1500" height="1500" viewBox="0 0 1500 1500" fill="none" xmlns="http://www.w3.org/2000/svg">
<g clip-path="url(#clip0_99_9)">
<path d="M750 140.625C581.719 140.625 445.312 277.031 445.312 445.312V679.688H562.5V445.312C562.5 341.93 646.617 257.812 750 257.812C853.383 257.812 937.5 341.93 937.5 445.312V679.688H1054.69V445.312C1054.69 277.031 918.281 140.625 750 140.625Z" fill="url(#paint0_linear_99_9)"/>
<path d="M1148.44 1335.94H351.562C312.727 1335.94 281.25 1304.46 281.25 1265.62V820.312C281.25 690.867 386.18 585.938 515.625 585.938H984.375C1113.82 585.938 1218.75 690.867 1218.75 820.312V1265.62C1218.75 1304.46 1187.27 1335.94 1148.44 1335.94Z" fill="url(#paint1_linear_99_9)"/>
<path d="M960.938 1007.81C960.938 1046.65 992.414 1078.12 1031.25 1078.12H1042.97C1075.34 1078.12 1101.56 1104.35 1101.56 1136.72C1101.56 1169.09 1075.34 1195.31 1042.97 1195.31H937.5C898.664 1195.31 867.188 1226.79 867.188 1265.62C867.188 1304.46 898.664 1335.94 937.5 1335.94H1148.44C1187.27 1335.94 1218.75 1304.46 1218.75 1265.62V937.5H1031.25C992.414 937.5 960.938 968.977 960.938 1007.81Z" fill="url(#paint2_linear_99_9)"/>
<path d="M539.062 878.906C539.062 846.539 512.836 820.312 480.469 820.312H457.031C424.664 820.312 398.438 794.086 398.438 761.719C398.438 729.352 424.664 703.125 457.031 703.125H574.219C606.586 703.125 632.812 676.898 632.812 644.531C632.812 612.164 606.586 585.938 574.219 585.938H515.625C386.18 585.938 281.25 690.867 281.25 820.312V937.5H480.469C512.836 937.5 539.062 911.273 539.062 878.906Z" fill="url(#paint3_linear_99_9)"/>
<path d="M750 890.625C731.352 890.625 713.468 898.033 700.282 911.219C687.095 924.405 679.688 942.289 679.688 960.938C679.688 979.586 687.095 997.47 700.282 1010.66C713.468 1023.84 731.352 1031.25 750 1031.25C768.648 1031.25 786.532 1023.84 799.718 1010.66C812.905 997.47 820.312 979.586 820.312 960.938C820.312 942.289 812.905 924.405 799.718 911.219C786.532 898.033 768.648 890.625 750 890.625ZM984.375 890.625C965.727 890.625 947.843 898.033 934.657 911.219C921.47 924.405 914.062 942.289 914.062 960.938C914.062 979.586 921.47 997.47 934.657 1010.66C947.843 1023.84 965.727 1031.25 984.375 1031.25C1003.02 1031.25 1020.91 1023.84 1034.09 1010.66C1047.28 997.47 1054.69 979.586 1054.69 960.938C1054.69 942.289 1047.28 924.405 1034.09 911.219C1020.91 898.033 1003.02 890.625 984.375 890.625ZM515.625 890.625C496.977 890.625 479.093 898.033 465.907 911.219C452.72 924.405 445.313 942.289 445.312 960.938C445.313 979.586 452.72 997.47 465.907 1010.66C479.093 1023.84 496.977 1031.25 515.625 1031.25C534.273 1031.25 552.157 1023.84 565.343 1010.66C578.53 997.47 585.937 979.586 585.938 960.938C585.937 942.289 578.53 924.405 565.343 911.219C552.157 898.033 534.273 890.625 515.625 890.625Z" fill="white"/>
</g>
<defs>
<linearGradient id="paint0_linear_99_9" x1="750" y1="140.625" x2="750" y2="679.687" gradientUnits="userSpaceOnUse">
<stop stop-color="#A4A4A4"/>
<stop offset="0.63" stop-color="#7F7F7F"/>
<stop offset="1" stop-color="#6F6F6F"/>
</linearGradient>
<linearGradient id="paint1_linear_99_9" x1="750" y1="585.938" x2="750" y2="1335.94" gradientUnits="userSpaceOnUse">
<stop stop-color="#42D778"/>
<stop offset="0.428" stop-color="#3DCA76"/>
<stop offset="1" stop-color="#34B171"/>
</linearGradient>
<linearGradient id="paint2_linear_99_9" x1="1042.97" y1="1335.94" x2="1042.97" y2="758.602" gradientUnits="userSpaceOnUse">
<stop stop-color="#37AB6A"/>
<stop offset="0.422" stop-color="#39B66F"/>
<stop offset="1" stop-color="#3AC074"/>
</linearGradient>
<linearGradient id="paint3_linear_99_9" x1="457.031" y1="685.828" x2="457.031" y2="1303.03" gradientUnits="userSpaceOnUse">
<stop stop-color="#62DE8F"/>
<stop offset="0.478" stop-color="#5DD18D"/>
<stop offset="1" stop-color="#56BE89"/>
</linearGradient>
<clipPath id="clip0_99_9">
<rect width="1500" height="1500" rx="24" fill="white"/>
</clipPath>
</defs>
</svg>
